<svg id="Layer_1" data-name="Layer 1" xmlns="http://www.w3.org/2000/svg" viewBox="0 0 200 200"><defs><style>.cls-1{fill:#e5e5e5;}.cls-2{fill:#999;}</style></defs><title>předměty2</title><path d="M152.54,31.13S119.32,16.93,93,18.81,38.45,32.75,28,59.69s-2.31,67,1.32,82.12S38.08,176.46,49,180.16s41.6,5.37,55.16-7.76,36.87-26.22,51.87-34.29,30.09-55.42,24-72S168,42.68,152.54,31.13Z"/><path class="cls-1" d="M147.58,36S117,23.08,93.59,24.75s-47.82,11-57.12,35-2.05,59.59,1.18,73,7.79,30.81,17.55,34.1,37,4.78,49-6.9,32.41-33.28,45.74-40.45,27.14-39.32,21.68-54.09S147.58,36,147.58,36Z"/><path class="cls-2" d="M49.73,66.34s-7.56,12.5-6.6,24.45,10.64,24.31,16,28.94,9.7,6.71,11.86,9.92c0,0-1.63-6.1-2.6-6.85-5.76-10.59-11.13-15.44-16.69-22.2C47.46,86.16,47.19,77.46,49.73,66.34Z"/><path d="M49.73,66.34s-5,15.92-2.79,24.41,12.87,20.5,17.86,26.77A32.43,32.43,0,0,1,71,129.65s.54-8.39-3.08-15.57S51.76,96.58,50.62,86.31,49.08,73.87,49.73,66.34Z"/><path d="M145.75,65.55s3.52,10.28-4.17,16.05c-14.82,5.95-19,11.53-23.79,15.55-7.5,5-11.23,7.23-23.37,4.67-6.78-2-6.55-5.3-6.55-5.3s13.6,4.77,23.6.35,3.46-4.9,14.48-11.49S143.08,79.42,145.75,65.55Z"/><path class="cls-2" d="M87.86,96.53s-.33,8.13,8.78,10.57,17.79-.67,22.62-3.57,10.93-13,17.57-14.94,11.5-8.15,11.57-13.82a15.86,15.86,0,0,0-2.65-9.22s1.8,6.93.13,10-2.12,4.56-6,6.75c-6.2,2.74-11.58,5.74-14,7.82-4.61,3.88-8.13,7-11.13,8.8-.38.36-6.22,5.5-17.61,3.49C89,100.17,87.86,96.53,87.86,96.53Z"/><path class="cls-2" d="M32.07,96s5.7,22.21,10,31.9,13.13,16.4,20.95,19.2,14.56,5.79,20.44,4.24,5.27-5.9,8.27-8.57,13.5-5.75,17.46-5.77,9.67,0,19.34-9.68,21.72-2.8,29.34-19.47,14.87-37.61,14.87-37.61,1.3,7.12-3.06,21.21-12.52,33.66-15.63,35-16.86,1.45-29.57,14.58-21.06,23.38-33.23,26.21-17.71,3.26-29.78,1.66-13.85-6.45-17.65-13.86S31.58,112.24,32.07,96Z"/><path d="M70.81,149.92a19.82,19.82,0,0,0,10.8,1.66c6.22-.77,7.55-5.05,11.95-8.36S111.19,137,111.19,137s-12.45-2.06-18.58,1.68-8.84,7-13,8.45S70.81,149.92,70.81,149.92Z"/><circle class="cls-2" cx="76.55" cy="76.3" r="2.73" transform="translate(-13.07 15.89) rotate(-10.92)"/><circle class="cls-2" cx="59.67" cy="139.5" r="2.28" transform="translate(-25.35 13.84) rotate(-10.92)"/><circle class="cls-2" cx="74.01" cy="86.87" r="3.65" transform="translate(-15.12 15.6) rotate(-10.92)"/><circle class="cls-2" cx="69.78" cy="141.87" r="3.65" transform="translate(-25.62 15.79) rotate(-10.92)"/><circle class="cls-2" cx="84.84" cy="81.07" r="2.18" transform="translate(-13.82 17.55) rotate(-10.92)"/><circle class="cls-2" cx="91.34" cy="38.57" r="2.73" transform="translate(-5.65 18.01) rotate(-10.92)"/><circle class="cls-2" cx="104.42" cy="36.34" r="3.65" transform="translate(-5 20.45) rotate(-10.92)"/><circle class="cls-2" cx="135.66" cy="44.7" r="2.73" transform="translate(-6.01 26.52) rotate(-10.92)"/><circle class="cls-2" cx="144.32" cy="55.28" r="3.65" transform="translate(-7.86 28.35) rotate(-10.92)"/><circle class="cls-2" cx="114.15" cy="36.44" r="2.18" transform="translate(-4.84 22.29) rotate(-10.92)"/><circle class="cls-2" cx="97.31" cy="43.18" r="2.18" transform="translate(-6.42 19.22) rotate(-10.92)"/><path class="cls-2" d="M33.12,70.14S47.93,43.3,61,37.19s30.87-3.76,35.29-6.42,29.23-3.31,37.31,3.64,9.49,14.08,17.13,16.55,19.1,10.43,19.1,10.43-2.49-14.24-19.68-24.76-34.12-12.15-47.34-13-28,.6-46.54,10.53S33.12,70.14,33.12,70.14Z"/><circle class="cls-1" cx="56.51" cy="161.77" r="2.18" transform="translate(-29.63 13.64) rotate(-10.92)"/><circle class="cls-1" cx="94.72" cy="159.29" r="2.69" transform="translate(-28.47 20.84) rotate(-10.92)"/><circle class="cls-1" cx="148.45" cy="44.47" r="2.18" transform="translate(-5.74 28.94) rotate(-10.92)"/><circle class="cls-1" cx="66.36" cy="162.09" r="3.65" transform="translate(-29.51 15.51) rotate(-10.92)"/></svg>