<svg id="Layer_1" data-name="Layer 1" xmlns="http://www.w3.org/2000/svg" xmlns:xlink="http://www.w3.org/1999/xlink" viewBox="0 0 200 200"><defs><style>.cls-1{opacity:0.74;fill:url(#radial-gradient);}</style><radialGradient id="radial-gradient" cx="100" cy="100" r="92.88" gradientUnits="userSpaceOnUse"><stop offset="0" stop-color="#009245" stop-opacity="0.8"/><stop offset="0.23" stop-color="#009044" stop-opacity="0.78"/><stop offset="0.44" stop-color="#008b43" stop-opacity="0.71"/><stop offset="0.65" stop-color="#008240" stop-opacity="0.61"/><stop offset="0.84" stop-color="#00753b" stop-opacity="0.46"/><stop offset="1" stop-color="#006837" stop-opacity="0.3"/></radialGradient></defs><title>předměty2</title><path class="cls-1" d="M98,87.74l94.14-8.51L170.86,41.56,190.65,7.34,136.44,25,74.33,6.41,8,20.12l11.4,36.76,29.25,4.73L19.43,68,7.83,111.34l70,12.6L9.17,128.52l24.89,17.06L9.81,161.95l29.41,9.82L21.15,193.59l82.11-17.44,78.89,11.51L141.1,166.25l49.55-19.76L171.72,117l18.93-20.54ZM58.15,36.69,128.7,43,92.76,56Zm57.65,122-22.37-6.28L55.78,164.29l40.65-24.62,18.23,4,50.17-5.81Z"/></svg>