<?xml version="1.0" encoding="utf-8"?>
<svg data-name="Layer 1" viewBox="0 0 200 200" xmlns="http://www.w3.org/2000/svg" xmlns:xlink="http://www.w3.org/1999/xlink">
 <defs>
  <style>
   .robomission--background-yellow--cls-1{opacity:0.84;}.robomission--background-yellow--cls-2,.robomission--background-yellow--cls-3,.robomission--background-yellow--cls-4{opacity:0.72;}.robomission--background-yellow--cls-2{fill:url(#robomission--background-yellow--radial-gradient);}.robomission--background-yellow--cls-3{fill:url(#robomission--background-yellow--radial-gradient-2);}.robomission--background-yellow--cls-4{fill:url(#robomission--background-yellow--radial-gradient-3);}
  </style>
  <radialGradient cx="98.11" cy="100" gradientUnits="userSpaceOnUse" id="robomission--background-yellow--radial-gradient" r="88.66">
   <stop offset="0" stop-color="#fcee21" stop-opacity=".8"/>
   <stop offset=".19" stop-color="#fcec22" stop-opacity=".79"/>
   <stop offset=".36" stop-color="#fce724" stop-opacity=".75"/>
   <stop offset=".52" stop-color="#fcdf27" stop-opacity=".68"/>
   <stop offset=".68" stop-color="#fcd32c" stop-opacity=".58"/>
   <stop offset=".83" stop-color="#fbc433" stop-opacity=".46"/>
   <stop offset=".99" stop-color="#fbb23a" stop-opacity=".32"/>
   <stop offset="1" stop-color="#fbb03b" stop-opacity=".3"/>
  </radialGradient>
  <radialGradient cx="153.66" cy="79.88" id="robomission--background-yellow--radial-gradient-2" r="29.42" xlink:href="#robomission--background-yellow--radial-gradient"/>
  <radialGradient cx="141.69" cy="166.99" id="robomission--background-yellow--radial-gradient-3" r="32.05" xlink:href="#robomission--background-yellow--radial-gradient"/>
 </defs>
 <title>
  background yellow
 </title>
 <rect style="opacity:1;fill:#000000;fill-opacity:1;" width="200" height="200" x="0" y="0" />
 <g class="robomission--background-yellow--cls-1">
  <polygon class="robomission--background-yellow--cls-2" points="18.61 13.72 68.08 25.4 112.35 9.88 141.69 25.4 180.62 12.76 168.53 42.44 185.28 65.9 115.39 49.7 64.86 65.9 115.39 73.08 180.62 104.49 168.53 127.33 180.62 141.63 74.16 154.56 37.96 150.6 52.64 167.5 141.68 179.41 91.16 189.72 23.28 190.12 10.93 163.28 27.64 114.12 62.66 117.37 14.97 91.46 20.7 49.7"/>
  <polygon class="robomission--background-yellow--cls-3" points="118.25 58.04 185.28 72.67 189.07 101.73"/>
  <polygon class="robomission--background-yellow--cls-4" points="98.11 160.15 180.62 154.56 185.28 179.41"/>
 </g>
</svg>
