<svg id="Layer_1" data-name="Layer 1" xmlns="http://www.w3.org/2000/svg" xmlns:xlink="http://www.w3.org/1999/xlink" viewBox="0 0 200 200"><defs><style>.cls-1{opacity:0.74;}.cls-2,.cls-3,.cls-4{opacity:0.62;}.cls-2{fill:url(#radial-gradient);}.cls-3{fill:url(#radial-gradient-2);}.cls-4{fill:url(#radial-gradient-3);}</style><radialGradient id="radial-gradient" cx="98.11" cy="100" r="88.66" gradientUnits="userSpaceOnUse"><stop offset="0" stop-color="#fcee21" stop-opacity="0.8"/><stop offset="0.19" stop-color="#fcec22" stop-opacity="0.79"/><stop offset="0.36" stop-color="#fce724" stop-opacity="0.75"/><stop offset="0.52" stop-color="#fcdf27" stop-opacity="0.68"/><stop offset="0.68" stop-color="#fcd32c" stop-opacity="0.58"/><stop offset="0.83" stop-color="#fbc433" stop-opacity="0.46"/><stop offset="0.99" stop-color="#fbb23a" stop-opacity="0.32"/><stop offset="1" stop-color="#fbb03b" stop-opacity="0.3"/></radialGradient><radialGradient id="radial-gradient-2" cx="153.66" cy="79.88" r="29.42" xlink:href="#radial-gradient"/><radialGradient id="radial-gradient-3" cx="141.69" cy="166.99" r="32.05" xlink:href="#radial-gradient"/></defs><title>předměty2</title><g class="cls-1"><polygon class="cls-2" points="18.61 13.72 68.08 25.4 112.35 9.88 141.69 25.4 180.62 12.76 168.53 42.44 185.28 65.9 115.39 49.7 64.86 65.9 115.39 73.08 180.62 104.49 168.53 127.33 180.62 141.63 74.16 154.56 37.96 150.6 52.64 167.5 141.68 179.41 91.16 189.72 23.28 190.12 10.93 163.28 27.64 114.12 62.66 117.37 14.97 91.46 20.7 49.7 18.61 13.72"/><polygon class="cls-3" points="118.25 58.04 185.28 72.67 189.07 101.73 118.25 58.04"/><polygon class="cls-4" points="98.11 160.15 180.62 154.56 185.28 179.41 98.11 160.15"/></g></svg>