<svg id="Layer_1" data-name="Layer 1" xmlns="http://www.w3.org/2000/svg" xmlns:xlink="http://www.w3.org/1999/xlink" viewBox="0 0 200 200"><defs><style>.cls-1{opacity:0.74;fill:url(#radial-gradient);}.cls-2,.cls-3,.cls-4{opacity:0.73;}.cls-2{fill:url(#radial-gradient-2);}.cls-3{fill:url(#radial-gradient-3);}.cls-4{fill:url(#radial-gradient-4);}</style><radialGradient id="radial-gradient" cx="100" cy="100" r="94.35" gradientUnits="userSpaceOnUse"><stop offset="0" stop-color="#d4145a" stop-opacity="0.8"/><stop offset="0.22" stop-color="#d5145b" stop-opacity="0.78"/><stop offset="0.41" stop-color="#d8155f" stop-opacity="0.73"/><stop offset="0.6" stop-color="#dc1764" stop-opacity="0.63"/><stop offset="0.79" stop-color="#e31a6d" stop-opacity="0.5"/><stop offset="0.97" stop-color="#eb1d77" stop-opacity="0.33"/><stop offset="1" stop-color="#ed1e79" stop-opacity="0.3"/></radialGradient><radialGradient id="radial-gradient-2" cx="173.78" cy="89.11" r="20.15" xlink:href="#radial-gradient"/><radialGradient id="radial-gradient-3" cx="177.87" cy="169.16" r="14.46" xlink:href="#radial-gradient"/><radialGradient id="radial-gradient-4" cx="18.53" cy="105.34" r="14.45" xlink:href="#radial-gradient"/></defs><title>předměty2</title><polygon class="cls-1" points="26.54 19.72 116.78 8.78 189.31 17.59 123.7 42.11 197.38 49.55 128.66 78.06 175.66 112.17 155.57 119.97 194.21 146.17 127.1 148.38 189.1 189.5 84.94 183.9 15.04 191.22 42.68 178.14 3.6 161.91 72.22 158.22 2.62 136.41 51.45 106.17 7.64 71.86 66.28 64.86 8.25 39.78 37.2 30.79 26.54 19.72"/><polygon class="cls-2" points="151.63 80.6 192.92 71.2 195.93 97.63 189.05 107.03 151.63 80.6"/><polygon class="cls-3" points="159.8 159.58 188.19 178.73 195.93 163.88 159.8 159.58"/><polygon class="cls-4" points="11.6 89.11 30.96 102.94 6.11 121.56 11.6 89.11"/></svg>