<?xml version="1.0" encoding="utf-8"?>
<svg data-name="Layer 1" viewBox="0 0 200 200" xmlns="http://www.w3.org/2000/svg" xmlns:xlink="http://www.w3.org/1999/xlink">
 <defs>
  <style>
   .robomission--background-blue--cls-1{opacity:0.9;fill:url(#robomission--background-blue--radial-gradient);}.robomission--background-blue--cls-2,.robomission--background-blue--cls-3{opacity:0.8;}.robomission--background-blue--cls-2{fill:url(#robomission--background-blue--radial-gradient-2);}.robomission--background-blue--cls-3{fill:url(#robomission--background-blue--radial-gradient-3);}
  </style>
  <radialGradient cx="103.41" cy="100.01" gradientUnits="userSpaceOnUse" id="robomission--background-blue--radial-gradient" r="93.54">
   <stop offset="0" stop-color="#29abe2" stop-opacity=".7"/>
   <stop offset=".13" stop-color="#26a7e0" stop-opacity=".66"/>
   <stop offset=".34" stop-color="#209ed9" stop-opacity=".56"/>
   <stop offset=".61" stop-color="#148ecf" stop-opacity=".4"/>
   <stop offset=".92" stop-color="#0578c0" stop-opacity=".17"/>
   <stop offset="1" stop-color="#0071bc" stop-opacity=".1"/>
  </radialGradient>
  <radialGradient cx="158.8" cy="88.15" id="robomission--background-blue--radial-gradient-2" r="28.56" xlink:href="#robomission--background-blue--radial-gradient"/>
  <radialGradient cx="23.79" cy="134.53" id="robomission--background-blue--radial-gradient-3" r="28.62" xlink:href="#robomission--background-blue--radial-gradient"/>
 </defs>
 <title>
  background blue
 </title>
 <rect style="opacity:1;fill:#000000;fill-opacity:1;" width="200" height="200" x="0" y="0" />
 <polygon class="robomission--background-blue--cls-1" points="14.77 24.25 65.27 7.76 101.35 31.47 154.42 8.28 191.01 37.65 135.36 54.14 173.49 69.6 98.25 89.19 32.29 76.82 113.71 112.89 191.01 105.67 172.46 137.63 198.22 190.19 101.35 171.64 70.43 177.82 111.65 192.25 9.62 187.09 54.97 153.08 26.11 141.75 70.43 111.86 8.59 73.72 28.17 46.93"/>
 <polygon class="robomission--background-blue--cls-2" points="119.38 95.88 188.43 79.39 198.22 96.92"/>
 <polygon class="robomission--background-blue--cls-3" points="16.83 98.98 43.12 110.31 15.8 143.29 30.23 156.69 4.47 170.09"/>
</svg>
