<?xml version="1.0" encoding="utf-8"?>
<svg data-name="Layer 1" viewBox="0 0 200 200" xmlns="http://www.w3.org/2000/svg">
 <defs>
  <style>
   .robomission--bullet--cls-1{fill:#e5e5e5;}.robomission--bullet--cls-2{fill:#999;}
  </style>
 </defs>
 <title>
  bullet
 </title>
 <path d="M98.47,32S106.18,46.65,113.2,79s10.85,89,10.85,89L98.44,149,75.95,167.56s.21-20.3,5-69.58S98.47,32,98.47,32Z"/>
 <path class="robomission--bullet--cls-1" d="m112.81 150.52-13.88-14-13.69 13.8s-0.49-23.56 0.61-47.76c1.93-28.18 6.6-42 6.6-42h5.93 5.92s4.81 12.18 6.91 42.58 1.6 47.38 1.6 47.38z"/>
 <polyline class="robomission--bullet--cls-2" points="98.28 39.98 104.68 61.64 92.04 61.73 94.66 52.46"/>
 <path class="robomission--bullet--cls-2" d="M90.05,69.83s2.13-6.22,7.62-6c4.12,0,6.87,8.62,8,13.86s2.64,26.57,3.17,30.89c.15,1.25.33,4.81.51,9.23,0,.38-5.9,2.57-12,2.76-5.88.19-12-.26-12-.26s-.08,2-.08,2.14a63,63,0,0,0,12.4,1.28c6.11,0,11.87-1.28,11.88-.9.36,10.13.67,21.77.67,21.77L99.05,133.48,85.24,150.32l13.69-13.77,13.88,14s.26-20.65-1-38.3A293.19,293.19,0,0,0,108.39,78a125.85,125.85,0,0,0-3.71-16.32L92,61.73s-.77,2.69-1,3.55C90.78,66.45,90.05,69.83,90.05,69.83Z"/>
</svg>