<svg id="Layer_1" data-name="Layer 1" xmlns="http://www.w3.org/2000/svg" viewBox="0 0 200 200"><defs><style>.cls-1{fill:#39b54a;}.cls-2{fill:#fff;}.cls-3{fill:#7ddb86;}</style></defs><title>předměty2</title><polygon points="34.77 87.79 100 163.4 165.23 87.9 129 54.7 72.89 54.6 34.77 87.79"/><polygon class="cls-1" points="43.56 86.65 99.59 151.59 155.47 88.02 128.43 60 71.85 60 43.56 86.65"/><polygon class="cls-2" points="99.69 150.29 120.93 93 80.24 93 99.69 150.29"/><polygon class="cls-3" points="99.59 151.42 80.24 93.59 43.56 86.31 99.59 151.42"/><polygon class="cls-3" points="80.24 94 99.86 59.73 120.93 94 80.24 94"/><polygon class="cls-2" points="71.85 60 80.24 94.27 99.86 60 71.85 60"/><polygon class="cls-2" points="120.93 93.59 128.43 59.32 155.47 87.6 120.93 93.59"/><polygon points="44.86 81.21 80.24 92.44 121.24 92.33 152.16 80.22 158.32 87.48 120.74 94.91 100.25 152.23 98.99 151.8 117.59 95.07 82.72 94.92 100.23 151.43 99.75 153.84 79.94 94.79 36.86 88.34 44.86 81.21"/></svg>