<svg id="Layer_1" data-name="Layer 1" xmlns="http://www.w3.org/2000/svg" xmlns:xlink="http://www.w3.org/1999/xlink" viewBox="0 0 200 200"><defs><style>.cls-1{fill:#e5190a;}.cls-2{fill:#7f0900;}.cls-3{fill:#999;}.cls-4{opacity:0.75;fill:url(#radial-gradient);}</style><radialGradient id="radial-gradient" cx="130.37" cy="9.62" r="21.27" gradientTransform="translate(-27.81 78.51) rotate(38.94) scale(1 0.7)" gradientUnits="userSpaceOnUse"><stop offset="0.3" stop-color="#f7931e"/><stop offset="1" stop-color="#ed1c24"/></radialGradient></defs><title>předměty2</title><path d="M32.94,87.6s-1.22-4.37.64-12.41C35.46,66.6,43.76,63,43.76,63l125-.88a18.26,18.26,0,0,1,11.56,14.3c2,11.34-3.28,17.54-3.28,17.54A24.63,24.63,0,0,1,183.51,108c.94,17.41-8.85,25.52-8.85,25.52L50,139.36s-7.13-.92-10-4.63A15.44,15.44,0,0,1,36.39,127s-8.33-1-12.6-7.67c-4.88-9.44-2.55-17.29-.4-22.12C28.4,89.12,32.94,87.6,32.94,87.6Z"/><path class="cls-1" d="M46,68.29l117.93-.47s7,1.59,8.16,12-4.23,15-4.23,15,8.41,8.26,8.08,18.6-5.46,12.51-5.46,12.51L48.91,130.46l-3.94-10-9.31-.34L33.43,94.22l12.64-1Z"/><path class="cls-2" d="M40.58,93.52s-4.24-3.2-2.34-13.65,7.5-11.49,7.5-11.49S52.31,67,54.17,78.79,50,97.66,50,97.66s3.37-1.25,6.38,4.45,2.63,10.44,1.89,15.21-2.66,10.33-5.25,12.05-5.82,1.5-7.91-1.86A53.16,53.16,0,0,1,41.71,121s-7.54,1.91-12.64-3.54C26.74,114,25.84,106.79,28,101.25,28,101.25,33.91,89.59,40.58,93.52Z"/><path class="cls-2" d="M82.12,67.84a35.87,35.87,0,0,1,6.35,13.81,49.91,49.91,0,0,1,.69,15.43l-5.61.64-5.9-30Z"/><path class="cls-2" d="M89.86,103.53a40.59,40.59,0,0,1-.15,14.68c-1.56,8.14-3.11,11-3.11,11l-6.86.5,3.11-29.93Z"/><path class="cls-2" d="M47.21,96.8,168,94.68s1.44,1.64,2.63,3.09a20.63,20.63,0,0,1,2.15,3.44L56.42,104.48Z"/><path d="M63.63,67.81s9.14,16.54,9.48,32.38S69.86,133,69.86,133L84,131.84s5.43-23.5,3-36.35a104.26,104.26,0,0,0-7.1-27.93Z"/><path class="cls-3" d="M67.57,67.27s8.89,18.89,8.75,34a125.42,125.42,0,0,1-2.7,29.93l7.73-.57s5.17-18.79,2.95-33.27C83.12,81.08,76,67.07,76,67.07Z"/><path d="M133.72,67.58s9.14,16.54,9.48,32.38S140,132.77,140,132.77l14.18-1.16s5.43-23.5,3-36.35A104.26,104.26,0,0,0,150,67.33Z"/><path class="cls-3" d="M137.66,67s8.89,18.89,8.75,34c.53,16.44-2,26.65-2,26.65l7.73-.07s4-18.28,2.29-30.49C153.22,80.84,146,66.83,146,66.83Z"/><path d="M67.84,167.18S43.2,163.61,30,149s-11.68-25.54-9.29-33.17,10-8.88,12.08-13.15,6.55-19.28,11.12-22.2,3.2,2,2.07,3-4.38,6.59-6.65,11.87c-1.48,4.31-2.41,7.2-3.11,8.54s-4.32,4.42-4.32,4.42,6.26-2.91,10.08-2.56c5.21-.19,9.35,5.32,9.81,7.09s-.22,4.57-2.6,2.75-3.29-5.35-6.37-5.83-9.9,1.38-11.3,2.61-8.23,3.09-8.51,12.74,8.82,19.77,12.45,24.45a60.41,60.41,0,0,0,26.11,12.9C72.55,164.91,69.88,166.52,67.84,167.18Z"/><polygon class="cls-4" points="68.77 146.47 60.71 163.17 46.22 167.34 61.45 170.87 54.89 180.79 67.93 177.75 83.22 183.47 78.26 171.32 92.48 163.8 72.92 161.87 68.77 146.47"/></svg>