<svg id="Layer_1" data-name="Layer 1" xmlns="http://www.w3.org/2000/svg" xmlns:xlink="http://www.w3.org/1999/xlink" viewBox="0 0 200 200"><defs><style>.cls-1,.cls-10,.cls-2,.cls-3,.cls-4,.cls-5,.cls-6,.cls-7,.cls-8,.cls-9{opacity:0.84;}.cls-1{fill:url(#radial-gradient);}.cls-2{fill:url(#radial-gradient-2);}.cls-3{fill:url(#radial-gradient-3);}.cls-4{fill:url(#radial-gradient-4);}.cls-5{fill:url(#radial-gradient-5);}.cls-6{fill:url(#radial-gradient-6);}.cls-7{fill:url(#radial-gradient-7);}.cls-8{fill:url(#radial-gradient-8);}.cls-9{fill:url(#radial-gradient-9);}.cls-10{fill:url(#radial-gradient-10);}</style><radialGradient id="radial-gradient" cx="87.45" cy="101.19" r="73.63" gradientUnits="userSpaceOnUse"><stop offset="0.3" stop-color="#f7931e"/><stop offset="1" stop-color="#ed1c24"/></radialGradient><radialGradient id="radial-gradient-2" cx="87.39" cy="101.32" r="48.46" gradientUnits="userSpaceOnUse"><stop offset="0.3" stop-color="#f7931e"/><stop offset="1" stop-color="#f15a24"/></radialGradient><radialGradient id="radial-gradient-3" cx="67.94" cy="31.26" r="22.32" xlink:href="#radial-gradient"/><radialGradient id="radial-gradient-4" cx="418.63" cy="-267.7" r="15.68" gradientTransform="translate(-154.4 430.3) rotate(-21.63)" xlink:href="#radial-gradient"/><radialGradient id="radial-gradient-5" cx="167.44" cy="81.96" r="26.97" gradientTransform="translate(89.61 -77.01) rotate(45) scale(1 0.7)" xlink:href="#radial-gradient"/><radialGradient id="radial-gradient-6" cx="23.18" cy="73.06" r="21.96" xlink:href="#radial-gradient"/><radialGradient id="radial-gradient-7" cx="18.47" cy="141.28" r="17.65" xlink:href="#radial-gradient"/><radialGradient id="radial-gradient-8" cx="53.63" cy="169.65" r="18.1" xlink:href="#radial-gradient"/><radialGradient id="radial-gradient-9" cx="110.67" cy="170.24" r="18.2" xlink:href="#radial-gradient"/><radialGradient id="radial-gradient-10" cx="155.23" cy="146.75" r="25.23" xlink:href="#radial-gradient"/></defs><title>předměty2</title><path class="cls-1" d="M105.88,46.73s18.57-15.45,35.86,0c13,16.2.38,26.57.38,26.57S159,80,160.56,91.44s-8.07,21.35-8.07,21.35,14.17,17.93.68,33.07-35,5.41-35,5.41,5.94,17.92-15.56,23.64c-15.12,2.47-26.51-14.7-26.51-14.7s-26.57,18.47-46-1.09.71-42.12.71-42.12S11,105.15,14.61,87.5,42.32,63.13,42.32,63.13,34.41,27.57,69,27.22,105.88,46.73,105.88,46.73Z"/><path class="cls-2" d="M86.27,57.28a32.42,32.42,0,0,1,27.25,5.34c13,9.77,8.14,23,8.14,23s13.56,1.26,16.82,16.53-8.68,18.08-8.68,18.08-1.09,15.69-10.85,21.09-26.25,0-26.25,0a37.24,37.24,0,0,1-26.22,4.26c-14.81-3.19-18.06-18.06-18.06-18.06S32.13,118,36.47,103.89,54.92,85.62,54.92,85.62s0-12.14,8.14-21.37S86.27,57.28,86.27,57.28Z"/><polygon class="cls-3" points="71.52 11.75 65.77 33.73 43.12 27.21 71.52 50.77 74.58 35.61 92.77 44.64 71.52 11.75"/><polygon class="cls-4" points="128.09 16.59 123.83 45.64 157.62 32.23 140.58 29 128.09 16.59"/><polygon class="cls-5" points="163.17 59.36 136.72 79.1 152.59 84.59 144.45 94.45 181.48 104.55 169.27 90.7 198.17 82.62 159.1 75.41 163.17 59.36"/><polygon class="cls-6" points="14.17 51.13 45.15 75.59 24.81 78.86 29.66 95 1.2 95 17.07 85.73 5.27 75.98 25.21 70.23 14.17 51.13"/><polygon class="cls-7" points="35.74 123.25 1.2 131.8 18.47 137.09 10.16 159.31 35.74 123.25"/><polygon class="cls-8" points="50.18 151.33 35.74 180.46 56.71 172.9 65.77 187.96 71.52 151.33 53.63 164.88 50.18 151.33"/><polygon class="cls-9" points="95.21 155.4 98.06 190.82 109.04 166.06 126.14 164.88 106.48 149.67 101.32 157.44 95.21 155.4"/><polygon class="cls-10" points="145.26 126.1 184.33 139.06 149.74 141.28 160.73 152.96 148.93 155.4 143.63 167.39 126.14 141.28 140.72 146.75 145.26 126.1"/></svg>