<?xml version="1.0" encoding="utf-8"?>
<svg data-name="Layer 1" viewBox="0 0 200 200" xmlns="http://www.w3.org/2000/svg" xmlns:xlink="http://www.w3.org/1999/xlink">
 <defs>
  <style>
   .robomission--explosion--cls-1,.robomission--explosion--robomission--explosion--cls-10,.robomission--explosion--cls-2,.robomission--explosion--cls-3,.robomission--explosion--cls-4,.robomission--explosion--cls-5,.robomission--explosion--cls-6,.robomission--explosion--cls-7,.robomission--explosion--cls-8,.robomission--explosion--cls-9{opacity:0.84;}.robomission--explosion--cls-1{fill:url(#robomission--explosion--radial-gradient);}.robomission--explosion--cls-2{fill:url(#robomission--explosion--radial-gradient-2);}.robomission--explosion--cls-3{fill:url(#robomission--explosion--radial-gradient-3);}.robomission--explosion--cls-4{fill:url(#robomission--explosion--radial-gradient-4);}.robomission--explosion--cls-5{fill:url(#robomission--explosion--radial-gradient-5);}.robomission--explosion--cls-6{fill:url(#robomission--explosion--radial-gradient-6);}.robomission--explosion--cls-7{fill:url(#robomission--explosion--radial-gradient-7);}.robomission--explosion--cls-8{fill:url(#robomission--explosion--radial-gradient-8);}.robomission--explosion--cls-9{fill:url(#robomission--explosion--radial-gradient-9);}.robomission--explosion--robomission--explosion--cls-10{fill:url(#robomission--explosion--radial-gradient-10);}
  </style>
  <radialGradient cx="87.45" cy="101.19" gradientUnits="userSpaceOnUse" id="robomission--explosion--radial-gradient" r="73.63">
   <stop offset=".3" stop-color="#f7931e"/>
   <stop offset="1" stop-color="#ed1c24"/>
  </radialGradient>
  <radialGradient cx="87.39" cy="101.32" gradientUnits="userSpaceOnUse" id="robomission--explosion--radial-gradient-2" r="48.46">
   <stop offset=".3" stop-color="#f7931e"/>
   <stop offset="1" stop-color="#f15a24"/>
  </radialGradient>
  <radialGradient cx="67.94" cy="31.26" id="robomission--explosion--radial-gradient-3" r="22.32" xlink:href="#robomission--explosion--radial-gradient"/>
  <radialGradient cx="418.63" cy="-267.7" gradientTransform="translate(-154.4 430.3) rotate(-21.63)" id="robomission--explosion--radial-gradient-4" r="15.68" xlink:href="#robomission--explosion--radial-gradient"/>
  <radialGradient cx="167.44" cy="81.96" gradientTransform="translate(89.61 -77.01) rotate(45) scale(1 .7)" id="robomission--explosion--radial-gradient-5" r="26.97" xlink:href="#robomission--explosion--radial-gradient"/>
  <radialGradient cx="23.18" cy="73.06" id="robomission--explosion--radial-gradient-6" r="21.96" xlink:href="#robomission--explosion--radial-gradient"/>
  <radialGradient cx="18.47" cy="141.28" id="robomission--explosion--radial-gradient-7" r="17.65" xlink:href="#robomission--explosion--radial-gradient"/>
  <radialGradient cx="53.63" cy="169.65" id="robomission--explosion--radial-gradient-8" r="18.1" xlink:href="#robomission--explosion--radial-gradient"/>
  <radialGradient cx="110.67" cy="170.24" id="robomission--explosion--radial-gradient-9" r="18.2" xlink:href="#robomission--explosion--radial-gradient"/>
  <radialGradient cx="155.23" cy="146.75" id="robomission--explosion--radial-gradient-10" r="25.23" xlink:href="#robomission--explosion--radial-gradient"/>
 </defs>
 <title>
  explosion
 </title>
 <path class="robomission--explosion--cls-1" d="M105.88,46.73s18.57-15.45,35.86,0c13,16.2.38,26.57.38,26.57S159,80,160.56,91.44s-8.07,21.35-8.07,21.35,14.17,17.93.68,33.07-35,5.41-35,5.41,5.94,17.92-15.56,23.64c-15.12,2.47-26.51-14.7-26.51-14.7s-26.57,18.47-46-1.09.71-42.12.71-42.12S11,105.15,14.61,87.5,42.32,63.13,42.32,63.13,34.41,27.57,69,27.22,105.88,46.73,105.88,46.73Z"/>
 <path class="robomission--explosion--cls-2" d="m86.27 57.28a32.42 32.42 0 0 1 27.25 5.34c13 9.77 8.14 23 8.14 23s13.56 1.26 16.82 16.53-8.68 18.08-8.68 18.08-1.09 15.69-10.85 21.09-26.25 0-26.25 0a37.24 37.24 0 0 1-26.22 4.26c-14.81-3.19-18.06-18.06-18.06-18.06s-16.29-9.52-11.95-23.63 18.45-18.27 18.45-18.27 0-12.14 8.14-21.37 23.21-6.97 23.21-6.97z"/>
 <polygon class="robomission--explosion--cls-3" points="71.52 11.75 65.77 33.73 43.12 27.21 71.52 50.77 74.58 35.61 92.77 44.64"/>
 <polygon class="robomission--explosion--cls-4" points="128.09 16.59 123.83 45.64 157.62 32.23 140.58 29"/>
 <polygon class="robomission--explosion--cls-5" points="163.17 59.36 136.72 79.1 152.59 84.59 144.45 94.45 181.48 104.55 169.27 90.7 198.17 82.62 159.1 75.41"/>
 <polygon class="robomission--explosion--cls-6" points="14.17 51.13 45.15 75.59 24.81 78.86 29.66 95 1.2 95 17.07 85.73 5.27 75.98 25.21 70.23"/>
 <polygon class="robomission--explosion--cls-7" points="35.74 123.25 1.2 131.8 18.47 137.09 10.16 159.31"/>
 <polygon class="robomission--explosion--cls-8" points="50.18 151.33 35.74 180.46 56.71 172.9 65.77 187.96 71.52 151.33 53.63 164.88"/>
 <polygon class="robomission--explosion--cls-9" points="95.21 155.4 98.06 190.82 109.04 166.06 126.14 164.88 106.48 149.67 101.32 157.44"/>
 <polygon class="robomission--explosion--robomission--explosion--cls-10" points="145.26 126.1 184.33 139.06 149.74 141.28 160.73 152.96 148.93 155.4 143.63 167.39 126.14 141.28 140.72 146.75"/>
</svg>