<?xml version="1.0" encoding="utf-8"?>
<svg data-name="Layer 1" viewBox="0 0 200 200" xmlns="http://www.w3.org/2000/svg">
 <defs>
  <style>
   .robomission--flame--cls-1{fill:url(#robomission--flame--linear-gradient);}
  </style>
  <linearGradient gradientTransform="matrix(.42 .91 -.91 .42 57.52 1081)" gradientUnits="userSpaceOnUse" id="robomission--flame--linear-gradient" x1="-917.28" x2="-814.63" y1="-447.54" y2="-447.54">
   <stop offset=".17" stop-color="#ed1c24"/>
   <stop offset="1" stop-color="#f7931e"/>
  </linearGradient>
 </defs>
 <title>
  flame
 </title>
 <path class="robomission--flame--cls-1" d="m117.82 141.14s-0.74-5.72-3.2-26.28c-2.18-22.47-4.09-31.5-4.09-31.5s-2.48 8.16-2.38 30.15c-0.46 36.59-7.61 51.83-7.61 51.83s-1.9-28.07-2.74-44.88a239.66 239.66 0 0 0-5-39.17s-1.46 16.88-2.74 27c-3.75 21.37-7.3 31.54-7.3 31.54s-2-33.32-2.82-47.93a241.39 241.39 0 0 0-2.68-24.9l10.4-8.68 15.54 14.86 10.08-13.6 7.29 5.64s1.11 20.12 1.13 40.3a160.86 160.86 0 0 1-3.88 35.62z"/>
</svg>