<svg id="Layer_1" data-name="Layer 1" xmlns="http://www.w3.org/2000/svg" xmlns:xlink="http://www.w3.org/1999/xlink" viewBox="0 0 200 200"><defs><style>.cls-1{fill:url(#linear-gradient);}</style><linearGradient id="linear-gradient" x1="-917.28" y1="-447.54" x2="-814.63" y2="-447.54" gradientTransform="matrix(0.42, 0.91, -0.91, 0.42, 57.52, 1081.03)" gradientUnits="userSpaceOnUse"><stop offset="0.17" stop-color="#ed1c24"/><stop offset="1" stop-color="#f7931e"/></linearGradient></defs><title>předměty2</title><path class="cls-1" d="M117.82,141.14s-.74-5.72-3.2-26.28c-2.18-22.47-4.09-31.5-4.09-31.5s-2.48,8.16-2.38,30.15c-.46,36.59-7.61,51.83-7.61,51.83s-1.9-28.07-2.74-44.88a239.66,239.66,0,0,0-5-39.17s-1.46,16.88-2.74,27c-3.75,21.37-7.3,31.54-7.3,31.54s-2-33.32-2.82-47.93A241.39,241.39,0,0,0,77.26,67l10.4-8.68L103.2,73.18l10.08-13.6,7.29,5.64s1.11,20.12,1.13,40.3A160.86,160.86,0,0,1,117.82,141.14Z"/></svg>