<svg id="Layer_1" data-name="Layer 1" xmlns="http://www.w3.org/2000/svg" viewBox="0 0 200 200"><defs><style>.cls-1{fill:#e5e5e5;}.cls-2{fill:#999;}</style></defs><title>předměty2</title><path d="M117.73,56.56s-19.81-7.58-35,4.66-28,42.54-23.31,60.6,39,30.88,61.77,19.81,25.06-48.37,13.4-62.35S132.89,61.22,117.73,56.56Z"/><path class="cls-1" d="M115.32,61.6s-16.27-6.22-28.71,3.83-23,34.93-19.14,49.76,32.06,25.36,50.72,16.27,20.58-39.72,11-51.2S127.76,65.43,115.32,61.6Z"/><path class="cls-2" d="M67.92,98s1.76,23.42,22.56,26.83,32.91-5.46,35.64-15.35,5.46-19.44,1-25.92-4.77-10.91-4.94-13.47a30.45,30.45,0,0,1,0-4.6s.87.56,1.84,5.57c2.38,7.2,6,9.43,7.5,12.56s3.69,7.84,3.3,18S131.4,123.79,119.64,131s-26.6,3.41-29.33,2.73-15-4.43-21.31-14.49C63.88,108.85,67.92,98,67.92,98Z"/><path class="cls-2" d="M86.76,72.64s-3.5,8.89-4,9.48c-3.28,8.59-1.85,12.2-.24,16.79s.69,9.21,5.24,12,7.51,7.15,13.18,7.45,11.44-3.13,11.44-3.13-10.08,2.24-18.86-7.25-7.62-17.13-7.73-21.71A131.73,131.73,0,0,1,86.76,72.64Z"/><path d="M87,72.51a121,121,0,0,0-3.49,15.56c-.9,6.87,4.17,13,5.52,17s13.72,12.09,17.42,11.64a20.61,20.61,0,0,0,5.92-1.52A23.94,23.94,0,0,1,97.76,110c-7.25-5.61-5.09-10.15-8.78-15.51S86.67,78.94,87,72.51Z"/><circle class="cls-2" cx="113.95" cy="69.23" r="3.64"/><circle class="cls-2" cx="105.11" cy="65.17" r="2.59"/><circle class="cls-2" cx="107.36" cy="72.47" r="1.71"/><circle class="cls-2" cx="98.81" cy="104.04" r="2.59"/><circle class="cls-2" cx="103.27" cy="108.96" r="1.71"/><circle class="cls-2" cx="105.65" cy="99.16" r="1.71"/></svg>