<?xml version="1.0" encoding="utf-8"?>
<svg data-name="Layer 1" viewBox="0 0 200 200" xmlns="http://www.w3.org/2000/svg">
 <defs>
  <style>
   .robomission--spaceship--cls-1{fill:#e5190a;}.robomission--spaceship--cls-2{fill:#e5e5e5;}.robomission--spaceship--cls-3{fill:#999;}.robomission--spaceship--cls-4{fill:#bc1600;}.robomission--spaceship--cls-5{fill:none;stroke:#999;stroke-miterlimit:10;}
  </style>
 </defs>
 <title>
  spaceship
 </title>
 <path d="M101.73,7.82S83.67,34.12,71.58,64.07s-14.93,36-21.17,56.6A159.18,159.18,0,0,0,44,160.31l27.26-14.79-2.15,48L92,179.22,104.2,193,116,178.43l21,14.15-.64-47.93,30.55,11.69S145.6,69.6,101.73,7.82Z"/>
 <path class="robomission--spaceship--cls-1" d="M130.42,135.41l-54.21.27L54.47,145.74C58.16,109.21,90.15,41,90.15,41L101.7,14.18l12,26.53s34.68,64.37,38.93,103.72Z"/>
 <path class="robomission--spaceship--cls-2" d="M130.8,157.14l-54.3.22s-1-30.51,1-61.88C81.23,58.95,90.15,41,90.15,41l11.91-.16,11.66-.16s9.52,15.69,13.77,55S130.8,157.14,130.8,157.14Z"/>
 <path class="robomission--spaceship--cls-2" d="m131.14 182-14.45-12.47-13 12.84-14-12.47-12.85 12.78-0.34-25.32 54.3-0.73z"/>
 <path class="robomission--spaceship--cls-3" d="M87,48.58a31.82,31.82,0,0,1,15.31-3.21c8.5.47,13.42,9.33,16.11,19.42s3.43,27.12,3.07,47-1.24,22.37-10.73,33.2c-8.74,7.33-17.6,6.45-24.45,5.3a15.62,15.62,0,0,1-10.08-6.19l.19,11.45,25.68,4.14,28.94-6.25a447.29,447.29,0,0,0-2.75-51.22c-.25-10.65-4-32.09-5.4-35.19-2.21-9.8-9.19-26.92-9.19-26.92l-23.58.32Z"/>
 <polygon class="robomission--spaceship--cls-4" points="76.85 177.87 89.82 164.66 103.91 177.5 117.21 164.3 131.31 177.14 131.37 181.95 116.73 169.48 103.69 182.32 89.71 169.84 76.84 182.68"/>
 <path class="robomission--spaceship--cls-5" d="M82.3,65.78l6.64.39s6.82-.4,6.91,6.11-2,51.61-2,51.61-.1,5.93-7.4,6.93-10.27,1.46-10.27,1.46"/>
 <path class="robomission--spaceship--cls-5" d="M121.32,65.26l-6.62.56s-6.83-.22-6.74,6.29,3.37,51.54,3.37,51.54.26,5.92,7.59,6.72,10.31,1.19,10.31,1.19"/>
 <path d="m74.3 154.13s10.94 2.58 27.64 2.27a157.35 157.35 0 0 0 30.42-3.61v2a127.47 127.47 0 0 1-30.31 4.8 87.78 87.78 0 0 1-27.75-3.67z"/>
 <path d="m85.21 38.86a75.48 75.48 0 0 0 16.47 1.33 96.44 96.44 0 0 0 18.09-2.12v1.18a78.07 78.07 0 0 1-18 2.82 53.91 53.91 0 0 1-16.53-2.15z"/>
</svg>