<?xml version="1.0" encoding="utf-8"?>
<svg data-name="Layer 1" viewBox="0 0 200 200" xmlns="http://www.w3.org/2000/svg">
 <defs>
  <style>
   .robomission--spaceship-broken--cls-1{fill:#e5190a;}.robomission--spaceship-broken--cls-2{fill:#999;}.robomission--spaceship-broken--cls-3{fill:#e5e5e5;}.robomission--spaceship-broken--cls-4{fill:none;stroke:#999;stroke-miterlimit:10;}.robomission--spaceship-broken--cls-5{fill:#bc1600;}
  </style>
 </defs>
 <title>
  spaceship broken
 </title>
 <path d="M98.88,3.38S90.06,14.8,81.48,35.23c-10.18,27.05-11,38.23-11,38.23L90.19,62.22l10.15,5.37,6.77-17.43,8,5.24,1.81,9.16,16.44,14.66S120.15,25.51,98.88,3.38Z"/>
 <path class="robomission--spaceship-broken--cls-1" d="m94 19.94s-3.71 7.19-7.4 15.66-6.4 21.95-6.4 21.95l13-11.36 6.17 2.56 5.75-5 13 8.12a67.29 67.29 0 0 1 2.29 8.6l6 6.16s-1.43-4-5.24-12.78-11.62-26.06-11.62-26.06l-1.76 2.45-3.35-6.7z"/>
 <path class="robomission--spaceship-broken--cls-2" d="M87.28,34A112.7,112.7,0,0,0,82,48.06c-2,7-3.51,12-3.51,12l14.7-13.92,6.17,2.56,5-5.37,13.76,8.52s-1.76-6.63-3.43-11.68a45.48,45.48,0,0,0-2.22-6A61.52,61.52,0,0,1,87.28,34Z"/>
 <path class="robomission--spaceship-broken--cls-3" d="M84.08,41.66a32.77,32.77,0,0,1,12.2-2.89c6.43-.1,7.47.76,10.6,2.93s6,7,6,7l-7-4.39L98.07,61.92,90.22,57,76.68,64.74Z"/>
 <path d="M85.13,32.09s4.15,1.25,14.36,1.36,15.32-1.12,15.32-1.12l.52,1.22a57.18,57.18,0,0,1-15.81,1.86c-9.72,0-15.2-2.31-15.2-2.31Z"/>
 <polygon points="93.39 34.48 91.33 41.48 87.7 44.96 85.86 50.63 89.11 46.09 92.73 45.12 97.92 49.89 93.86 41.34 96.02 35.09"/>
 <path d="M6,63s.29,23.87,23.7,74.25,36.2,61.62,36.2,61.62L76.1,172s3.09,2.84,6.32,6c4.6,4.34,6.48,4.86,6.48,4.86l1.28-13.45,9.68-2.55L101,137.24,53.14,111l-6.92,8.6-6-1.29s-17-21.16-22.49-31.51S6,63,6,63Z"/>
 <path class="robomission--spaceship-broken--cls-1" d="m12.51 83.87s11.28 30 23.68 55.33a333.72 333.72 0 0 0 28.73 47.11l8.21-23.52s-47.06-43.73-60.62-78.92z"/>
 <path class="robomission--spaceship-broken--cls-3" d="m36.74 123.29 14.73 3.88 5.36-7.51 38.77 22.51-0.92 21.2-8.68 2.92-1 8.08s-32.42-30.71-48.26-51.08z"/>
 <path class="robomission--spaceship-broken--cls-4" d="M56.63,119.44c9.94,10.44,20.46,21.62,20.46,21.62s4.35,4.37-.18,10.54-6.34,8.73-6.34,8.73"/>
 <path class="robomission--spaceship-broken--cls-2" d="M78,167.62A7,7,0,0,0,82.47,169c3.46-.32,3.25-.45,3.25-.45L85,174.37Z"/>
 <polygon points="34.08 119.69 44.5 133.82 46.8 142.26 42.35 144.08 47.56 143.9 46.14 148.38 49.23 143.89 48.95 139.53 65.36 155.33 67.1 159.55 66.55 155.28 54.99 142.43 59.56 141.62 63.45 144.04 68.33 143.24 63.7 142.46 60.53 140.03 61.22 130.24 58.7 139.06 52.79 139.83 43.26 127.84 46.44 128.78 48.34 130.75 46.77 127.43 44.79 126.97 41.83 125.72 40.21 122.44"/>
 <path d="M179.88,82l-4.15,17.37-7.72,4-.58,10.32-11.67.86.55,16.74-6.74,17.42,16.37,8.73L176.4,141.7l21.53,11.83S190.59,106.83,179.88,82Z"/>
 <path class="robomission--spaceship-broken--cls-3" d="M155.66,146.51l5.76-14.79-.71-13.1,10.19-.2,1.25-12.24,5.72-2.81,3.25-10s5.12,23.35,6.78,30.47,4.48,21.53,4.48,21.53l-17-9.7L164.8,151.54Z"/>
 <path class="robomission--spaceship-broken--cls-2" d="M160.91,126l25.45-9s-2-9-3.56-16-1.7-7.65-1.7-7.65l-3.25,10-5.72,2.81-1.25,12.24-10.19.2Z"/>
 <path d="M160.75,124.87s10.67-3,17.54-5.53,8.16-3.57,8.16-3.57l.36,2a114.19,114.19,0,0,1-12.76,6.06c-6.56,2.56-13,4.29-13,4.29Z"/>
 <polygon class="robomission--spaceship-broken--cls-5" points="192.45 145.5 191.38 139.83 174.69 130.29 163.99 146.59 157.2 142.48 155.66 146.51 164.8 151.54 175.32 135.67"/>
 <polygon points="183.32 117.58 180.53 106.05 181 114.68 178.05 116.71 174.66 111.14 177.01 120.2 180.78 119.38 183.71 130.89"/>
</svg>