<svg id="Layer_1" data-name="Layer 1" xmlns="http://www.w3.org/2000/svg" xmlns:xlink="http://www.w3.org/1999/xlink" viewBox="0 0 200 200"><defs><style>.cls-1{fill:url(#radial-gradient);}.cls-2{fill:#a5d8e5;}</style><radialGradient id="radial-gradient" cx="101.96" cy="100.46" r="72.11" gradientUnits="userSpaceOnUse"><stop offset="0.24" stop-color="#659199" stop-opacity="0.8"/><stop offset="0.68" stop-color="#284f57" stop-opacity="0.92"/><stop offset="1" stop-color="#00252c"/></radialGradient></defs><title>předměty2</title><path d="M163,152.94l-10.54-2.21s4.71-1,14.71-10.29c8.67-9.83,9.67-17.33,9.83-31.67.83-11.33-3.6-23.94-3.6-23.94s-2.2,20.9-12.72,31.42c0,0,5.91-12,7-21.44,2.11-6.95.16-28.46.16-28.46l-4,7.73-1-6.82c-4.37-21.19-17.47-31.67-17.47-31.67s4.17,12.26,2.17,31C146.14,61.74,145,55.72,141.05,48c-5-11.75-19.27-21.92-19.27-21.92l.21,9.87s1.23-.86-7.19-5.7S93,22.88,81.4,22.88c-16.6,1.22-28.67,12.7-28.67,12.7s18.56-.13,30.62.6A68.29,68.29,0,0,0,41.64,51.27C22.8,68.77,22.93,83.35,22.93,83.35S28.3,77.44,39.3,71.77c-15.5,27.83-12.19,43.12-9.25,59.58,6.33,32.17,44.22,44,44.22,44S61.67,161,61.47,159.6c14.84,14.84,38.83,20.33,58.17,16.17C134,172.46,163,152.94,163,152.94Z"/><path class="cls-1" d="M77.4,134.75s-.65-1.59,8.49,11.32c10.77,10.42,21.89,11.52,29,12.51,15.32,1.34,29.9-3.41,29.9-3.41l-12.63-3.44s3.63.06,12.66-3.54S154.4,144,162.35,137s10-20.94,10.71-26.77a30.75,30.75,0,0,0,0-9.13s-1.79,16.35-9.13,24.16-27.42,11.54-29.65,9.35a46.72,46.72,0,0,0,12.37-7.45c13.1-12.21,12.91-20.06,14.89-26.61s1.39-17.12,1.39-17.12l-5.11,11s2.76-7.55,1.74-19.91-8.85-25-8.85-25,4.44,10.05,1.26,29.91c-1.3,7.12-6.36,17.35-9.64,20.4a22.84,22.84,0,0,1-7.59,4.43,40,40,0,0,0,8.15-18.42c1.64-9.53.8-17.54-4.21-30.25s-11.5-18.5-11.5-18.5l.28,8a60.18,60.18,0,0,0-13.57-11c-7.94-4.57-19.46-6.27-29.19-6.51A39.52,39.52,0,0,0,67.43,31.3,59,59,0,0,1,93,31.3a45.29,45.29,0,0,1,13.85,6.36l-8.49-.15s11.72,5.13,17,12.36c1.82,4.13,2.85,5.54,4,12.21,0,0-6.7-9.38-24.72-15.93-26.12-5-40.42,4.42-46.37,8.29S30.55,72.35,30.55,72.35a157.51,157.51,0,0,1,15-9.25C58.3,57.35,63.41,59.69,67.28,60c9.08,1,11.62,2.81,11.62,2.81s-10,.61-14.59,2.4c-15.93,5.06-21,13-21,13l14.44-6.25S42.78,83,39.3,94.35c-4.94,11.24-4.53,21.72-1.75,37.25s17.07,28.17,17.07,28.17a78.39,78.39,0,0,1-11.91-29c-3-16.68,6.35-31.12,6.35-31.12L46.63,112.2l5.88-6s-1.6,3.48-1.15,15.13c.68,20.56,17,38.49,17,38.49S65.4,153,65,151.22c0,0,1.76,2.77,7.45,8.55,14,14,39.24,14.47,45.57,12.84A78.16,78.16,0,0,0,131.9,167s-11,4.75-35.43-3c-12.58-5.67-15.92-15.08-17.25-19.83A63.89,63.89,0,0,1,77.4,134.75Z"/><path class="cls-2" d="M91.41,110.69c2,4.55,7.92,12.16,24.51,10.54,15.22-3.08,22.17-11.07,22.17-11.07s-5.39,4.08-18.73,4.81c0,0-9.49,1.45-13.81-3.55,8.64-2,15.17-5.76,17.33-13.37,4.95-11.3,3-25.05,3-25.05s-1.27,13.14-4.78,18.79C117.8,99.22,107.71,103,107.71,103a26.48,26.48,0,0,0,4.68-11.62c.82-5.28.33-10.53-4.72-17.93C97.46,62.26,86.74,61.51,86.74,61.51s13.94,7.91,16.93,13.25c5.13,11.75,1.83,15,1.33,17.2,0,0-.54-3.47-5.2-7.77-6-6.12-11.15-5.83-17.61-5.78-4.76.5-9.61.71-16.79,6.23-9.52,8.1-11.24,11.91-11.24,11.91s9-11.44,24.11-12.06c10.06.35,12,4.41,12,4.41a53.59,53.59,0,0,0-8,4c-6,3.46-10.73,11.26-12,18.89-1.59,13,2.61,21.1,2.61,21.1s.73-11.69,2-17.15a31.19,31.19,0,0,1,6-11.41s-.57,3.19,1.12,15.35c2.76,10.89,13.34,15.52,22.52,17.38,11.22,1.7,17.6.47,18,.05,0,0-19-1.1-27.95-9.71C91,122.73,91.41,110.69,91.41,110.69Z"/></svg>