<?xml version="1.0" encoding="utf-8"?>
<svg data-name="Layer 1" version="1.1" viewBox="0 0 200 200" xmlns="http://www.w3.org/2000/svg">
 <defs>
  <style>
   .robomission--wormhole-green--cls-1{fill:url(#robomission--wormhole-green--radial-gradient);}.robomission--wormhole-green--cls-2{fill:#a5d8e5;}
  </style>
  <radialGradient cx="101.96" cy="100.46" gradientUnits="userSpaceOnUse" id="robomission--wormhole-green--radial-gradient" r="72.11">
   <stop offset=".24" stop-color="#0071bc" stop-opacity=".8"/>
   <stop offset=".63" stop-color="#0f3e8c" stop-opacity=".91"/>
   <stop offset="1" stop-color="#1b1464"/>
  </radialGradient>
  <filter color-interpolation-filters="sRGB" id="robomission--wormhole-green--filter2404">
   <feColorMatrix result="fbSourceGraphic" values="0.21 0.72 0.072 0 0 0.21 0.72 0.072 0 0 0.21 0.72 0.072 0 0 0 0 0 1 0 "/>
   <feColorMatrix in="fbSourceGraphic" result="fbSourceGraphicAlpha" values="0 0 0 -1 0 0 0 0 -1 0 0 0 0 -1 0 0 0 0 1 0"/>
   <feComposite in="fbSourceGraphic" in2="fbSourceGraphic" k2="1" operator="arithmetic" result="composite1"/>
   <feColorMatrix in="composite1" result="colormatrix1" type="saturate" values="1"/>
   <feFlood flood-color="rgb(14,153,16)" result="flood1"/>
   <feBlend in="flood1" in2="colormatrix1" mode="multiply" result="blend1"/>
   <feBlend in2="blend1" mode="screen" result="blend2"/>
   <feColorMatrix in="blend2" result="colormatrix2" type="saturate" values="1"/>
   <feComposite in="colormatrix2" in2="fbSourceGraphic" k2="1" operator="in" result="fbSourceGraphic"/>
   <feColorMatrix in="fbSourceGraphic" result="fbSourceGraphicAlpha" values="0 0 0 -1 0 0 0 0 -1 0 0 0 0 -1 0 0 0 0 1 0"/>
   <feComposite in="fbSourceGraphic" in2="fbSourceGraphic" k2="1" operator="arithmetic" result="composite1"/>
   <feColorMatrix in="composite1" result="colormatrix1" type="saturate" values="1"/>
   <feFlood flood-color="rgb(9,197,11)" result="flood1"/>
   <feBlend in="flood1" in2="colormatrix1" mode="multiply" result="blend1"/>
   <feBlend in2="blend1" mode="screen" result="blend2"/>
   <feColorMatrix in="blend2" result="colormatrix2" type="saturate" values="1"/>
   <feComposite in="colormatrix2" in2="fbSourceGraphic" k2="1" operator="in" result="composite2"/>
  </filter>
  <filter color-interpolation-filters="sRGB" id="robomission--wormhole-green--filter2408">
   <feColorMatrix result="fbSourceGraphic" values="0.21 0.72 0.072 0 0 0.21 0.72 0.072 0 0 0.21 0.72 0.072 0 0 0 0 0 1 0 "/>
   <feColorMatrix in="fbSourceGraphic" result="fbSourceGraphicAlpha" values="0 0 0 -1 0 0 0 0 -1 0 0 0 0 -1 0 0 0 0 1 0"/>
   <feComposite in="fbSourceGraphic" in2="fbSourceGraphic" k2="1" operator="arithmetic" result="composite1"/>
   <feColorMatrix in="composite1" result="colormatrix1" type="saturate" values="1"/>
   <feFlood flood-color="rgb(14,153,16)" result="flood1"/>
   <feBlend in="flood1" in2="colormatrix1" mode="multiply" result="blend1"/>
   <feBlend in2="blend1" mode="screen" result="blend2"/>
   <feColorMatrix in="blend2" result="colormatrix2" type="saturate" values="1"/>
   <feComposite in="colormatrix2" in2="fbSourceGraphic" k2="1" operator="in" result="fbSourceGraphic"/>
   <feColorMatrix in="fbSourceGraphic" result="fbSourceGraphicAlpha" values="0 0 0 -1 0 0 0 0 -1 0 0 0 0 -1 0 0 0 0 1 0"/>
   <feComposite in="fbSourceGraphic" in2="fbSourceGraphic" k2="1" operator="arithmetic" result="composite1"/>
   <feColorMatrix in="composite1" result="colormatrix1" type="saturate" values="1"/>
   <feFlood flood-color="rgb(9,197,11)" result="flood1"/>
   <feBlend in="flood1" in2="colormatrix1" mode="multiply" result="blend1"/>
   <feBlend in2="blend1" mode="screen" result="blend2"/>
   <feColorMatrix in="blend2" result="colormatrix2" type="saturate" values="1"/>
   <feComposite in="colormatrix2" in2="fbSourceGraphic" k2="1" operator="in" result="composite2"/>
  </filter>
  <filter color-interpolation-filters="sRGB" id="robomission--wormhole-green--filter2412">
   <feColorMatrix result="fbSourceGraphic" values="0.21 0.72 0.072 0 0 0.21 0.72 0.072 0 0 0.21 0.72 0.072 0 0 0 0 0 1 0 "/>
   <feColorMatrix in="fbSourceGraphic" result="fbSourceGraphicAlpha" values="0 0 0 -1 0 0 0 0 -1 0 0 0 0 -1 0 0 0 0 1 0"/>
   <feComposite in="fbSourceGraphic" in2="fbSourceGraphic" k2="1" operator="arithmetic" result="composite1"/>
   <feColorMatrix in="composite1" result="colormatrix1" type="saturate" values="1"/>
   <feFlood flood-color="rgb(14,153,16)" result="flood1"/>
   <feBlend in="flood1" in2="colormatrix1" mode="multiply" result="blend1"/>
   <feBlend in2="blend1" mode="screen" result="blend2"/>
   <feColorMatrix in="blend2" result="colormatrix2" type="saturate" values="1"/>
   <feComposite in="colormatrix2" in2="fbSourceGraphic" k2="1" operator="in" result="fbSourceGraphic"/>
   <feColorMatrix in="fbSourceGraphic" result="fbSourceGraphicAlpha" values="0 0 0 -1 0 0 0 0 -1 0 0 0 0 -1 0 0 0 0 1 0"/>
   <feComposite in="fbSourceGraphic" in2="fbSourceGraphic" k2="1" operator="arithmetic" result="composite1"/>
   <feColorMatrix in="composite1" result="colormatrix1" type="saturate" values="1"/>
   <feFlood flood-color="rgb(9,197,11)" result="flood1"/>
   <feBlend in="flood1" in2="colormatrix1" mode="multiply" result="blend1"/>
   <feBlend in2="blend1" mode="screen" result="blend2"/>
   <feColorMatrix in="blend2" result="colormatrix2" type="saturate" values="1"/>
   <feComposite in="colormatrix2" in2="fbSourceGraphic" k2="1" operator="in" result="composite2"/>
  </filter>
 </defs>
 <title>
  wormhole green
 </title>
 <path d="m163 152.94-10.54-2.21s4.71-1 14.71-10.29c8.67-9.83 9.67-17.33 9.83-31.67 0.83-11.33-3.6-23.94-3.6-23.94s-2.2 20.9-12.72 31.42c0 0 5.91-12 7-21.44 2.11-6.95 0.16-28.46 0.16-28.46l-4 7.73-1-6.82c-4.37-21.19-17.47-31.67-17.47-31.67s4.17 12.26 2.17 31c-1.4-4.85-2.54-10.87-6.49-18.59-5-11.75-19.27-21.92-19.27-21.92l0.21 9.87s1.23-0.86-7.19-5.7-21.8-7.37-33.4-7.37c-16.6 1.22-28.67 12.7-28.67 12.7s18.56-0.13 30.62 0.6a68.29 68.29 0 0 0-41.71 15.09c-18.84 17.5-18.71 32.08-18.71 32.08s5.37-5.91 16.37-11.58c-15.5 27.83-12.19 43.12-9.25 59.58 6.33 32.17 44.22 44 44.22 44s-12.6-14.35-12.8-15.75c14.84 14.84 38.83 20.33 58.17 16.17 14.36-3.31 43.36-22.83 43.36-22.83z" filter="url(#robomission--wormhole-green--filter2412)" transform="matrix(-1 0 0 1 200.03 0)"/>
 <path class="robomission--wormhole-green--cls-1" d="m77.4 134.75s-0.65-1.59 8.49 11.32c10.77 10.42 21.89 11.52 29 12.51 15.32 1.34 29.9-3.41 29.9-3.41l-12.63-3.44s3.63 0.06 12.66-3.54 9.58-4.19 17.53-11.19 10-20.94 10.71-26.77a30.75 30.75 0 0 0 0-9.13s-1.79 16.35-9.13 24.16-27.42 11.54-29.65 9.35a46.72 46.72 0 0 0 12.37-7.45c13.1-12.21 12.91-20.06 14.89-26.61s1.39-17.12 1.39-17.12l-5.11 11s2.76-7.55 1.74-19.91-8.85-25-8.85-25 4.44 10.05 1.26 29.91c-1.3 7.12-6.36 17.35-9.64 20.4a22.84 22.84 0 0 1-7.59 4.43 40 40 0 0 0 8.15-18.42c1.64-9.53 0.8-17.54-4.21-30.25s-11.5-18.5-11.5-18.5l0.28 8a60.18 60.18 0 0 0-13.57-11c-7.94-4.57-19.46-6.27-29.19-6.51a39.52 39.52 0 0 0-17.27 3.72 59 59 0 0 1 25.57 0 45.29 45.29 0 0 1 13.85 6.36l-8.49-0.15s11.72 5.13 17 12.36c1.82 4.13 2.85 5.54 4 12.21 0 0-6.7-9.38-24.72-15.93-26.12-5-40.42 4.42-46.37 8.29s-17.72 17.91-17.72 17.91a157.51 157.51 0 0 1 15-9.25c12.75-5.75 17.86-3.41 21.73-3.1 9.08 1 11.62 2.81 11.62 2.81s-10 0.61-14.59 2.4c-15.93 5.06-21 13-21 13l14.44-6.25s-14.97 11.04-18.45 22.39c-4.94 11.24-4.53 21.72-1.75 37.25s17.07 28.17 17.07 28.17a78.39 78.39 0 0 1-11.91-29c-3-16.68 6.35-31.12 6.35-31.12l-2.43 12.55 5.88-6s-1.6 3.48-1.15 15.13c0.68 20.56 17 38.49 17 38.49s-2.96-6.82-3.36-8.6c0 0 1.76 2.77 7.45 8.55 14 14 39.24 14.47 45.57 12.84a78.16 78.16 0 0 0 13.88-5.61s-11 4.75-35.43-3c-12.58-5.67-15.92-15.08-17.25-19.83a63.89 63.89 0 0 1-1.82-9.42z" fill="url(#robomission--wormhole-green--radial-gradient)" filter="url(#robomission--wormhole-green--filter2408)" transform="matrix(-1 0 0 1 200.03 0)"/>
 <path class="robomission--wormhole-green--cls-2" d="m91.41 110.69c2 4.55 7.92 12.16 24.51 10.54 15.22-3.08 22.17-11.07 22.17-11.07s-5.39 4.08-18.73 4.81c0 0-9.49 1.45-13.81-3.55 8.64-2 15.17-5.76 17.33-13.37 4.95-11.3 3-25.05 3-25.05s-1.27 13.14-4.78 18.79c-3.3 7.43-13.39 11.21-13.39 11.21a26.48 26.48 0 0 0 4.68-11.62c0.82-5.28 0.33-10.53-4.72-17.93-10.21-11.19-20.93-11.94-20.93-11.94s13.94 7.91 16.93 13.25c5.13 11.75 1.83 15 1.33 17.2 0 0-0.54-3.47-5.2-7.77-6-6.12-11.15-5.83-17.61-5.78-4.76 0.5-9.61 0.71-16.79 6.23-9.52 8.1-11.24 11.91-11.24 11.91s9-11.44 24.11-12.06c10.06 0.35 12 4.41 12 4.41a53.59 53.59 0 0 0-8 4c-6 3.46-10.73 11.26-12 18.89-1.59 13 2.61 21.1 2.61 21.1s0.73-11.69 2-17.15a31.19 31.19 0 0 1 6-11.41s-0.57 3.19 1.12 15.35c2.76 10.89 13.34 15.52 22.52 17.38 11.22 1.7 17.6 0.47 18 0.05 0 0-19-1.1-27.95-9.71-3.57-4.67-3.16-16.71-3.16-16.71z" fill="#a5d8e5" filter="url(#robomission--wormhole-green--filter2404)" transform="matrix(-1 0 0 1 200.03 0)"/>
</svg>