<?xml version="1.0" encoding="UTF-8" standalone="no"?>
<svg
   xmlns:dc="http://purl.org/dc/elements/1.1/"
   xmlns:cc="http://creativecommons.org/ns#"
   xmlns:rdf="http://www.w3.org/1999/02/22-rdf-syntax-ns#"
   xmlns:svg="http://www.w3.org/2000/svg"
   xmlns="http://www.w3.org/2000/svg"
   xmlns:sodipodi="http://sodipodi.sourceforge.net/DTD/sodipodi-0.dtd"
   xmlns:inkscape="http://www.inkscape.org/namespaces/inkscape"
   id="Layer_1"
   data-name="Layer 1"
   viewBox="0 0 200 200"
   version="1.1"
   sodipodi:docname="wormhole-green.svg"
   inkscape:version="0.92.3 (2405546, 2018-03-11)">
  <metadata
     id="metadata24">
    <rdf:RDF>
      <cc:Work
         rdf:about="">
        <dc:format>image/svg+xml</dc:format>
        <dc:type
           rdf:resource="http://purl.org/dc/dcmitype/StillImage" />
      </cc:Work>
    </rdf:RDF>
  </metadata>
  <sodipodi:namedview
     pagecolor="#ffffff"
     bordercolor="#666666"
     borderopacity="1"
     objecttolerance="10"
     gridtolerance="10"
     guidetolerance="10"
     inkscape:pageopacity="0"
     inkscape:pageshadow="2"
     inkscape:window-width="1920"
     inkscape:window-height="1102"
     id="namedview22"
     showgrid="false"
     inkscape:zoom="3.337544"
     inkscape:cx="96.414878"
     inkscape:cy="91.824159"
     inkscape:window-x="0"
     inkscape:window-y="27"
     inkscape:window-maximized="1"
     inkscape:current-layer="Layer_1" />
  <defs
     id="defs11">
    <style
       id="style2">.cls-1{fill:url(#radial-gradient);}.cls-2{fill:#a5d8e5;}</style>
    <radialGradient
       id="radial-gradient"
       cx="101.96"
       cy="100.46"
       r="72.11"
       gradientUnits="userSpaceOnUse">
      <stop
         offset="0.24"
         stop-color="#0071bc"
         stop-opacity="0.8"
         id="stop4" />
      <stop
         offset="0.63"
         stop-color="#0f3e8c"
         stop-opacity="0.91"
         id="stop6" />
      <stop
         offset="1"
         stop-color="#1b1464"
         id="stop8" />
    </radialGradient>
    <filter
       style="color-interpolation-filters:sRGB;"
       inkscape:label="Colorize"
       id="filter2404">
      <feColorMatrix
         values="0.21 0.72 0.072 0 0 0.21 0.72 0.072 0 0 0.21 0.72 0.072 0 0 0 0 0 1 0 "
         id="feColorMatrix2402"
         result="fbSourceGraphic" />
      <feColorMatrix
         result="fbSourceGraphicAlpha"
         in="fbSourceGraphic"
         values="0 0 0 -1 0 0 0 0 -1 0 0 0 0 -1 0 0 0 0 1 0"
         id="feColorMatrix2416" />
      <feComposite
         in2="fbSourceGraphic"
         id="feComposite2418"
         operator="arithmetic"
         k1="0"
         k2="1"
         result="composite1"
         in="fbSourceGraphic" />
      <feColorMatrix
         id="feColorMatrix2420"
         in="composite1"
         values="1"
         type="saturate"
         result="colormatrix1" />
      <feFlood
         id="feFlood2422"
         flood-opacity="1"
         flood-color="rgb(14,153,16)"
         result="flood1" />
      <feBlend
         in2="colormatrix1"
         id="feBlend2424"
         in="flood1"
         mode="multiply"
         result="blend1" />
      <feBlend
         in2="blend1"
         id="feBlend2426"
         mode="screen"
         result="blend2" />
      <feColorMatrix
         id="feColorMatrix2428"
         in="blend2"
         values="1"
         type="saturate"
         result="colormatrix2" />
      <feComposite
         in2="fbSourceGraphic"
         id="feComposite2430"
         in="colormatrix2"
         operator="in"
         k2="1"
         result="fbSourceGraphic" />
      <feColorMatrix
         result="fbSourceGraphicAlpha"
         in="fbSourceGraphic"
         values="0 0 0 -1 0 0 0 0 -1 0 0 0 0 -1 0 0 0 0 1 0"
         id="feColorMatrix2464" />
      <feComposite
         in2="fbSourceGraphic"
         id="feComposite2466"
         operator="arithmetic"
         k1="0"
         k2="1"
         result="composite1"
         in="fbSourceGraphic" />
      <feColorMatrix
         id="feColorMatrix2468"
         in="composite1"
         values="1"
         type="saturate"
         result="colormatrix1" />
      <feFlood
         id="feFlood2470"
         flood-opacity="1"
         flood-color="rgb(9,197,11)"
         result="flood1" />
      <feBlend
         in2="colormatrix1"
         id="feBlend2472"
         in="flood1"
         mode="multiply"
         result="blend1" />
      <feBlend
         in2="blend1"
         id="feBlend2474"
         mode="screen"
         result="blend2" />
      <feColorMatrix
         id="feColorMatrix2476"
         in="blend2"
         values="1"
         type="saturate"
         result="colormatrix2" />
      <feComposite
         in2="fbSourceGraphic"
         id="feComposite2478"
         in="colormatrix2"
         operator="in"
         k2="1"
         result="composite2" />
    </filter>
    <filter
       style="color-interpolation-filters:sRGB;"
       inkscape:label="Colorize"
       id="filter2408">
      <feColorMatrix
         values="0.21 0.72 0.072 0 0 0.21 0.72 0.072 0 0 0.21 0.72 0.072 0 0 0 0 0 1 0 "
         id="feColorMatrix2406"
         result="fbSourceGraphic" />
      <feColorMatrix
         result="fbSourceGraphicAlpha"
         in="fbSourceGraphic"
         values="0 0 0 -1 0 0 0 0 -1 0 0 0 0 -1 0 0 0 0 1 0"
         id="feColorMatrix2432" />
      <feComposite
         in2="fbSourceGraphic"
         id="feComposite2434"
         operator="arithmetic"
         k1="0"
         k2="1"
         result="composite1"
         in="fbSourceGraphic" />
      <feColorMatrix
         id="feColorMatrix2436"
         in="composite1"
         values="1"
         type="saturate"
         result="colormatrix1" />
      <feFlood
         id="feFlood2438"
         flood-opacity="1"
         flood-color="rgb(14,153,16)"
         result="flood1" />
      <feBlend
         in2="colormatrix1"
         id="feBlend2440"
         in="flood1"
         mode="multiply"
         result="blend1" />
      <feBlend
         in2="blend1"
         id="feBlend2442"
         mode="screen"
         result="blend2" />
      <feColorMatrix
         id="feColorMatrix2444"
         in="blend2"
         values="1"
         type="saturate"
         result="colormatrix2" />
      <feComposite
         in2="fbSourceGraphic"
         id="feComposite2446"
         in="colormatrix2"
         operator="in"
         k2="1"
         result="fbSourceGraphic" />
      <feColorMatrix
         result="fbSourceGraphicAlpha"
         in="fbSourceGraphic"
         values="0 0 0 -1 0 0 0 0 -1 0 0 0 0 -1 0 0 0 0 1 0"
         id="feColorMatrix2480" />
      <feComposite
         in2="fbSourceGraphic"
         id="feComposite2482"
         operator="arithmetic"
         k1="0"
         k2="1"
         result="composite1"
         in="fbSourceGraphic" />
      <feColorMatrix
         id="feColorMatrix2484"
         in="composite1"
         values="1"
         type="saturate"
         result="colormatrix1" />
      <feFlood
         id="feFlood2486"
         flood-opacity="1"
         flood-color="rgb(9,197,11)"
         result="flood1" />
      <feBlend
         in2="colormatrix1"
         id="feBlend2488"
         in="flood1"
         mode="multiply"
         result="blend1" />
      <feBlend
         in2="blend1"
         id="feBlend2490"
         mode="screen"
         result="blend2" />
      <feColorMatrix
         id="feColorMatrix2492"
         in="blend2"
         values="1"
         type="saturate"
         result="colormatrix2" />
      <feComposite
         in2="fbSourceGraphic"
         id="feComposite2494"
         in="colormatrix2"
         operator="in"
         k2="1"
         result="composite2" />
    </filter>
    <filter
       style="color-interpolation-filters:sRGB;"
       inkscape:label="Colorize"
       id="filter2412">
      <feColorMatrix
         values="0.21 0.72 0.072 0 0 0.21 0.72 0.072 0 0 0.21 0.72 0.072 0 0 0 0 0 1 0 "
         id="feColorMatrix2410"
         result="fbSourceGraphic" />
      <feColorMatrix
         result="fbSourceGraphicAlpha"
         in="fbSourceGraphic"
         values="0 0 0 -1 0 0 0 0 -1 0 0 0 0 -1 0 0 0 0 1 0"
         id="feColorMatrix2448" />
      <feComposite
         in2="fbSourceGraphic"
         id="feComposite2450"
         operator="arithmetic"
         k1="0"
         k2="1"
         result="composite1"
         in="fbSourceGraphic" />
      <feColorMatrix
         id="feColorMatrix2452"
         in="composite1"
         values="1"
         type="saturate"
         result="colormatrix1" />
      <feFlood
         id="feFlood2454"
         flood-opacity="1"
         flood-color="rgb(14,153,16)"
         result="flood1" />
      <feBlend
         in2="colormatrix1"
         id="feBlend2456"
         in="flood1"
         mode="multiply"
         result="blend1" />
      <feBlend
         in2="blend1"
         id="feBlend2458"
         mode="screen"
         result="blend2" />
      <feColorMatrix
         id="feColorMatrix2460"
         in="blend2"
         values="1"
         type="saturate"
         result="colormatrix2" />
      <feComposite
         in2="fbSourceGraphic"
         id="feComposite2462"
         in="colormatrix2"
         operator="in"
         k2="1"
         result="fbSourceGraphic" />
      <feColorMatrix
         result="fbSourceGraphicAlpha"
         in="fbSourceGraphic"
         values="0 0 0 -1 0 0 0 0 -1 0 0 0 0 -1 0 0 0 0 1 0"
         id="feColorMatrix2496" />
      <feComposite
         in2="fbSourceGraphic"
         id="feComposite2498"
         operator="arithmetic"
         k1="0"
         k2="1"
         result="composite1"
         in="fbSourceGraphic" />
      <feColorMatrix
         id="feColorMatrix2500"
         in="composite1"
         values="1"
         type="saturate"
         result="colormatrix1" />
      <feFlood
         id="feFlood2502"
         flood-opacity="1"
         flood-color="rgb(9,197,11)"
         result="flood1" />
      <feBlend
         in2="colormatrix1"
         id="feBlend2504"
         in="flood1"
         mode="multiply"
         result="blend1" />
      <feBlend
         in2="blend1"
         id="feBlend2506"
         mode="screen"
         result="blend2" />
      <feColorMatrix
         id="feColorMatrix2508"
         in="blend2"
         values="1"
         type="saturate"
         result="colormatrix2" />
      <feComposite
         in2="fbSourceGraphic"
         id="feComposite2510"
         in="colormatrix2"
         operator="in"
         k2="1"
         result="composite2" />
    </filter>
  </defs>
  <title
     id="title13">předměty2</title>
  <path
     d="m 163,152.94 -10.54,-2.21 c 0,0 4.71,-1 14.71,-10.29 8.67,-9.83 9.67,-17.33 9.83,-31.67 0.83,-11.33 -3.6,-23.94 -3.6,-23.94 0,0 -2.2,20.9 -12.72,31.42 0,0 5.91,-12 7,-21.44 2.11,-6.95 0.16,-28.46 0.16,-28.46 l -4,7.73 -1,-6.82 c -4.37,-21.19 -17.47,-31.67 -17.47,-31.67 0,0 4.17,12.26 2.17,31 C 146.14,61.74 145,55.72 141.05,48 136.05,36.25 121.78,26.08 121.78,26.08 l 0.21,9.87 c 0,0 1.23,-0.86 -7.19,-5.7 -8.42,-4.84 -21.8,-7.37 -33.4,-7.37 -16.6,1.22 -28.67,12.7 -28.67,12.7 0,0 18.56,-0.13 30.62,0.6 A 68.29,68.29 0 0 0 41.64,51.27 C 22.8,68.77 22.93,83.35 22.93,83.35 c 0,0 5.37,-5.91 16.37,-11.58 -15.5,27.83 -12.19,43.12 -9.25,59.58 6.33,32.17 44.22,44 44.22,44 0,0 -12.6,-14.35 -12.8,-15.75 14.84,14.84 38.83,20.33 58.17,16.17 C 134,172.46 163,152.94 163,152.94 Z"
     id="path15"
     style="filter:url(#filter2412)"
     inkscape:connector-curvature="0"
     transform="matrix(-1,0,0,1,200.03357,0)" />
  <path
     class="cls-1"
     d="m 77.4,134.75 c 0,0 -0.65,-1.59 8.49,11.32 10.77,10.42 21.89,11.52 29,12.51 15.32,1.34 29.9,-3.41 29.9,-3.41 l -12.63,-3.44 c 0,0 3.63,0.06 12.66,-3.54 9.03,-3.6 9.58,-4.19 17.53,-11.19 7.95,-7 10,-20.94 10.71,-26.77 a 30.75,30.75 0 0 0 0,-9.13 c 0,0 -1.79,16.35 -9.13,24.16 -7.34,7.81 -27.42,11.54 -29.65,9.35 a 46.72,46.72 0 0 0 12.37,-7.45 c 13.1,-12.21 12.91,-20.06 14.89,-26.61 1.98,-6.55 1.39,-17.12 1.39,-17.12 l -5.11,11 c 0,0 2.76,-7.55 1.74,-19.91 -1.02,-12.36 -8.85,-25 -8.85,-25 0,0 4.44,10.05 1.26,29.91 -1.3,7.12 -6.36,17.35 -9.64,20.4 a 22.84,22.84 0 0 1 -7.59,4.43 40,40 0 0 0 8.15,-18.42 c 1.64,-9.53 0.8,-17.54 -4.21,-30.25 -5.01,-12.71 -11.5,-18.5 -11.5,-18.5 l 0.28,8 a 60.18,60.18 0 0 0 -13.57,-11 C 105.95,29.52 94.43,27.82 84.7,27.58 a 39.52,39.52 0 0 0 -17.27,3.72 59,59 0 0 1 25.57,0 45.29,45.29 0 0 1 13.85,6.36 l -8.49,-0.15 c 0,0 11.72,5.13 17,12.36 1.82,4.13 2.85,5.54 4,12.21 0,0 -6.7,-9.38 -24.72,-15.93 -26.12,-5 -40.42,4.42 -46.37,8.29 -5.95,3.87 -17.72,17.91 -17.72,17.91 a 157.51,157.51 0 0 1 15,-9.25 C 58.3,57.35 63.41,59.69 67.28,60 c 9.08,1 11.62,2.81 11.62,2.81 0,0 -10,0.61 -14.59,2.4 -15.93,5.06 -21,13 -21,13 l 14.44,-6.25 c 0,0 -14.97,11.04 -18.45,22.39 -4.94,11.24 -4.53,21.72 -1.75,37.25 2.78,15.53 17.07,28.17 17.07,28.17 a 78.39,78.39 0 0 1 -11.91,-29 c -3,-16.68 6.35,-31.12 6.35,-31.12 l -2.43,12.55 5.88,-6 c 0,0 -1.6,3.48 -1.15,15.13 0.68,20.56 17,38.49 17,38.49 0,0 -2.96,-6.82 -3.36,-8.6 0,0 1.76,2.77 7.45,8.55 14,14 39.24,14.47 45.57,12.84 A 78.16,78.16 0 0 0 131.9,167 c 0,0 -11,4.75 -35.43,-3 -12.58,-5.67 -15.92,-15.08 -17.25,-19.83 a 63.89,63.89 0 0 1 -1.82,-9.42 z"
     id="path17"
     style="fill:url(#radial-gradient);filter:url(#filter2408)"
     inkscape:connector-curvature="0"
     transform="matrix(-1,0,0,1,200.03357,0)" />
  <path
     class="cls-2"
     d="m 91.41,110.69 c 2,4.55 7.92,12.16 24.51,10.54 15.22,-3.08 22.17,-11.07 22.17,-11.07 0,0 -5.39,4.08 -18.73,4.81 0,0 -9.49,1.45 -13.81,-3.55 8.64,-2 15.17,-5.76 17.33,-13.37 4.95,-11.3 3,-25.05 3,-25.05 0,0 -1.27,13.14 -4.78,18.79 -3.3,7.43 -13.39,11.21 -13.39,11.21 a 26.48,26.48 0 0 0 4.68,-11.62 C 113.21,86.1 112.72,80.85 107.67,73.45 97.46,62.26 86.74,61.51 86.74,61.51 c 0,0 13.94,7.91 16.93,13.25 5.13,11.75 1.83,15 1.33,17.2 0,0 -0.54,-3.47 -5.2,-7.77 -6,-6.12 -11.15,-5.83 -17.61,-5.78 -4.76,0.5 -9.61,0.71 -16.79,6.23 -9.52,8.1 -11.24,11.91 -11.24,11.91 0,0 9,-11.44 24.11,-12.06 10.06,0.35 12,4.41 12,4.41 a 53.59,53.59 0 0 0 -8,4 c -6,3.46 -10.73,11.26 -12,18.89 -1.59,13 2.61,21.1 2.61,21.1 0,0 0.73,-11.69 2,-17.15 a 31.19,31.19 0 0 1 6,-11.41 c 0,0 -0.57,3.19 1.12,15.35 2.76,10.89 13.34,15.52 22.52,17.38 11.22,1.7 17.6,0.47 18,0.05 0,0 -19,-1.1 -27.95,-9.71 -3.57,-4.67 -3.16,-16.71 -3.16,-16.71 z"
     id="path19"
     style="fill:#a5d8e5;filter:url(#filter2404)"
     inkscape:connector-curvature="0"
     transform="matrix(-1,0,0,1,200.03357,0)" />
</svg>
